<?xml version="1.0" encoding="UTF-8" standalone="no"?>
<svg
   viewBox="0 0 48 49.680"
   width="48"
   height="49.680"
   fill="currentColor"
   preserveAspectRatio="xMidYMid"
   version="1.1"
   id="svg4"
   sodipodi:docname="github.svg"
   inkscape:version="1.2.2 (732a01da63, 2022-12-09)"
   xmlns:inkscape="http://www.inkscape.org/namespaces/inkscape"
   xmlns:sodipodi="http://sodipodi.sourceforge.net/DTD/sodipodi-0.dtd"
   xmlns="http://www.w3.org/2000/svg"
   xmlns:svg="http://www.w3.org/2000/svg">
  <defs
     id="defs8" />
  <sodipodi:namedview
     id="namedview6"
     pagecolor="#ffffff"
     bordercolor="#000000"
     borderopacity="0.25"
     inkscape:showpageshadow="2"
     inkscape:pageopacity="0.0"
     inkscape:pagecheckerboard="0"
     inkscape:deskcolor="#d1d1d1"
     showgrid="false"
     inkscape:zoom="3.216"
     inkscape:cx="128.26493"
     inkscape:cy="56.436567"
     inkscape:window-width="1920"
     inkscape:window-height="991"
     inkscape:window-x="-9"
     inkscape:window-y="-9"
     inkscape:window-maximized="1"
     inkscape:current-layer="svg4" />
  <path
     d="M 24.000188,0 C 10.746938,0 0,11.402628 0,25.468926 c 0,11.252801 6.87675,20.799793 16.412812,24.167435 1.199438,0.235784 1.639876,-0.552552 1.639876,-1.225284 0,-0.60727 -0.0225,-2.61353 -0.03262,-4.741562 -6.676875,1.54046 -8.0857502,-3.00511 -8.0857502,-3.00511 -1.0918122,-2.943826 -2.6649372,-3.726792 -2.6649372,-3.726792 -2.1774376,-1.580652 0.16425,-1.54802 0.16425,-1.54802 2.4099372,0.17948 3.6789374,2.624472 3.6789374,2.624472 2.140688,3.893532 5.614688,2.767934 6.984188,2.117088 0.215437,-1.645916 0.837374,-2.769724 1.523812,-3.405646 C 14.289756,36.081625 8.6859432,33.897683 8.6859432,24.138782 c 0,-2.780668 0.9375,-5.052757 2.4727498,-6.836363 -0.249187,-0.641494 -1.070625,-3.231743 0.2325,-6.74006 0,0 2.015437,-0.6844722 6.601875,2.610743 1.914375,-0.564291 3.9675,-0.847233 6.007126,-0.856983 2.039624,0.0098 4.094438,0.292493 6.012374,0.856983 4.580814,-3.2950162 6.593438,-2.610544 6.593438,-2.610544 1.306312,3.507919 0.4845,6.098566 0.235312,6.739861 1.538814,1.783606 2.469938,4.055695 2.469938,6.836363 0,9.782181 -5.6145,11.936079 -10.958812,12.566629 0.860812,0.790326 1.627874,2.340336 1.627874,4.71649 0,3.407636 -0.02774,6.1503 -0.02774,6.989176 0,0.677906 0.432,1.472012 1.6485,1.221702 C 41.131876,46.261555 48,36.718145 48,25.469124 48,11.402628 37.254562,0 24.000188,0 Z M 8.9889378,36.280999 c -0.052878,0.12654 -0.2405624,0.16456 -0.4113756,0.0776 -0.174188,-0.08298 -0.2718748,-0.255484 -0.2156246,-0.38243 0.05175,-0.13032 0.2398124,-0.16674 0.413437,-0.0794 0.174376,0.08318 0.2737508,0.257274 0.2135632,0.38422 z m 1.1805002,1.117838 c -0.114376,0.11262 -0.3382502,0.06028 -0.4901258,-0.1176 -0.156936,-0.17748 -0.186374,-0.41506 -0.070312,-0.529272 0.118126,-0.11262 0.3350624,-0.0599 0.4923758,0.1176 0.157124,0.17968 0.1875,0.415458 0.06807,0.529272 z m 0.81,1.430228 c -0.147188,0.10844 -0.387563,0.0068 -0.53625,-0.219668 -0.147,-0.226432 -0.147,-0.498032 0.0032,-0.606872 0.149062,-0.10884 0.385874,-0.011 0.536437,0.213898 0.146626,0.230212 0.146626,0.501814 -0.0036,0.61284 z m 1.3695,1.656462 c -0.131438,0.154 -0.41175,0.11262 -0.616876,-0.0975 -0.209812,-0.205342 -0.268124,-0.49664 -0.136124,-0.650646 0.133124,-0.1544 0.414938,-0.11102 0.621562,0.0975 0.208126,0.204944 0.271876,0.49843 0.131438,0.650646 z m 1.770374,0.559118 c -0.05812,0.19958 -0.328124,0.290304 -0.599812,0.20554 -0.2715,-0.08736 -0.449062,-0.320946 -0.394312,-0.522506 0.05643,-0.200964 0.327562,-0.295278 0.601312,-0.204546 0.271125,0.08676 0.44925,0.318758 0.392812,0.521712 z m 2.0145,0.237376 c 0.0068,0.209918 -0.223687,0.384022 -0.509062,0.388 -0.286875,0.0068 -0.519188,-0.16316 -0.522375,-0.370092 0,-0.211908 0.225375,-0.384418 0.512437,-0.389592 0.285376,-0.006 0.519,0.16276 0.519,0.371684 z m 1.979063,-0.08058 c 0.03412,0.204944 -0.164064,0.41546 -0.447563,0.47157 -0.278437,0.05392 -0.536437,-0.07262 -0.571874,-0.275778 -0.0345,-0.210118 0.167438,-0.420632 0.4455,-0.474952 0.283874,-0.05232 0.53775,0.07084 0.573937,0.27916 z"
     id="path2"
     style="stroke-width:0.193152" />
</svg>
